<?xml version="1.0" standalone="no"?>
<!DOCTYPE svg PUBLIC "-//W3C//DTD SVG 20010904//EN"
 "http://www.w3.org/TR/2001/REC-SVG-20010904/DTD/svg10.dtd">
<svg version="1.0" xmlns="http://www.w3.org/2000/svg"
 width="95" height="95" viewBox="0 0 500.000000 500.000000"
 preserveAspectRatio="xMidYMid meet">

<g transform="translate(0.000000,500.000000) scale(0.100000,-0.100000)"
fill="#02073E" stroke="none">
<path d="M2579 3323 c-5 -15 -57 -150 -115 -300 -58 -150 -103 -277 -99 -283
9 -14 42 -13 48 3 90 224 226 591 222 598 -12 19 -46 9 -56 -18z m41 8 c0 -18
-217 -572 -229 -584 -24 -24 -8 24 101 305 96 249 128 319 128 279z"/>
<path d="M2634 3236 c-18 -14 -18 -15 -1 -33 9 -11 57 -51 107 -89 49 -38 89
-71 89 -74 0 -3 -46 -41 -102 -85 -101 -80 -121 -107 -82 -113 27 -4 255 174
255 198 0 10 -45 52 -107 101 -149 118 -137 110 -159 95z m136 -97 c63 -50
115 -94 115 -99 0 -9 -226 -190 -237 -190 -23 0 3 27 97 100 58 46 105 86 105
90 0 4 -47 44 -105 90 -94 73 -120 100 -97 100 4 0 59 -41 122 -91z"/>
<path d="M2220 3150 c-73 -58 -115 -98 -115 -110 0 -25 223 -201 249 -198 22
3 29 18 18 34 -4 6 -49 43 -99 83 -51 40 -93 76 -93 81 0 5 42 41 93 81 97 77
109 88 104 104 -9 29 -49 10 -157 -75z m140 71 c0 -5 -46 -46 -102 -91 -57
-45 -103 -86 -103 -90 0 -4 46 -45 103 -90 56 -45 102 -86 102 -92 0 -5 -4 -8
-9 -6 -21 7 -231 179 -231 188 0 10 219 189 233 190 4 0 7 -4 7 -9z"/>
<path d="M1434 2570 c-82 -12 -133 -75 -119 -148 9 -49 51 -84 134 -112 76
-25 105 -47 99 -77 -8 -41 -97 -55 -173 -28 -22 8 -41 15 -42 15 -3 0 -33 -58
-33 -64 0 -14 102 -40 159 -40 85 -1 139 24 165 77 39 80 -4 149 -115 186 -36
11 -75 28 -88 37 -29 21 -24 54 11 73 22 13 36 13 80 4 29 -6 60 -14 69 -17
10 -5 20 4 31 27 16 34 16 35 -10 47 -37 17 -119 27 -168 20z"/>
<path d="M1872 2570 c-80 -12 -126 -65 -118 -140 5 -58 41 -90 132 -120 80
-26 109 -49 100 -77 -13 -42 -95 -55 -171 -28 -53 19 -51 20 -64 -17 -15 -42
-2 -53 88 -68 48 -8 80 -8 114 0 88 19 117 53 117 136 0 60 -31 89 -133 127
-41 15 -80 34 -87 42 -17 21 -8 47 22 64 26 15 67 11 144 -14 15 -5 23 0 32
20 7 14 12 30 12 35 0 27 -112 50 -188 40z"/>
<path d="M995 2551 c-81 -38 -125 -111 -125 -209 0 -74 35 -149 88 -186 71
-49 199 -54 282 -11 l30 16 0 104 0 105 -85 0 -85 0 0 -34 c0 -34 1 -35 43
-38 41 -3 42 -4 45 -40 4 -45 -20 -62 -88 -62 -91 0 -140 53 -140 154 0 59 2
64 39 101 37 37 42 39 102 39 37 0 76 -6 93 -15 15 -8 30 -15 32 -15 5 0 35
72 32 75 -2 1 -22 9 -46 18 -58 23 -165 22 -217 -2z"/>
<path d="M2780 2485 c0 -41 -2 -45 -25 -45 -22 0 -25 -4 -25 -40 0 -35 3 -40
24 -40 23 0 24 -3 28 -95 5 -127 16 -138 128 -143 l80 -4 0 41 0 41 -44 0
c-63 0 -76 17 -76 96 l0 64 61 0 60 0 -3 38 -3 37 -57 3 -58 3 0 44 0 45 -45
0 -45 0 0 -45z"/>
<path d="M2513 2439 c-41 -12 -63 -44 -63 -90 0 -47 38 -82 109 -99 60 -14 80
-33 60 -56 -11 -13 -25 -15 -69 -11 -30 3 -63 8 -72 12 -13 5 -21 0 -29 -19
-16 -35 -6 -43 66 -57 99 -18 178 8 193 64 18 67 -12 105 -109 137 -40 13 -54
22 -54 36 0 15 8 20 38 22 22 2 51 -1 67 -6 24 -9 29 -7 39 14 17 38 15 42
-39 53 -59 13 -93 13 -137 0z"/>
<path d="M3100 2428 c-59 -30 -85 -76 -85 -148 1 -93 53 -153 146 -166 47 -6
113 7 143 29 18 13 18 15 1 45 -18 29 -20 30 -46 16 -49 -25 -96 -18 -132 19
l-32 32 123 3 c120 3 122 3 122 26 0 13 -5 38 -11 57 -33 97 -134 135 -229 87z
m125 -73 c39 -38 32 -45 -45 -45 -49 0 -70 4 -70 13 0 17 12 32 35 45 31 18
54 14 80 -13z"/>
<path d="M3415 2442 l-40 -7 -3 -157 -3 -158 46 0 45 0 0 125 0 125 38 0 c21
0 43 -5 50 -12 8 -8 12 -50 12 -125 l0 -113 45 0 45 0 0 106 c0 125 7 144 55
144 48 0 55 -19 55 -144 l0 -106 40 0 40 0 0 130 c0 102 -3 136 -16 155 -30
46 -123 59 -185 26 -33 -18 -37 -18 -52 -3 -18 17 -105 25 -172 14z"/>
<path d="M3963 2443 c-36 -7 -73 -52 -73 -88 0 -51 32 -82 111 -105 54 -17 69
-25 69 -40 0 -13 -9 -22 -26 -26 -26 -7 -96 0 -127 12 -12 4 -20 -1 -27 -21
-6 -15 -8 -30 -5 -34 9 -15 126 -32 171 -25 57 8 93 38 100 85 8 50 -30 94
-99 114 -67 20 -81 29 -74 49 7 18 70 22 111 6 21 -8 27 -6 36 10 19 35 11 47
-34 59 -44 11 -90 12 -133 4z"/>
<path d="M2110 2330 c0 -60 5 -120 11 -133 17 -38 65 -60 131 -61 53 -1 58 -3
58 -23 0 -40 -64 -55 -139 -33 l-33 9 7 -37 c8 -44 15 -49 76 -57 59 -8 119 8
150 41 23 25 24 30 27 210 l3 184 -45 0 -46 0 0 -115 0 -115 -38 0 c-68 0 -76
14 -80 134 l-4 106 -39 0 -39 0 0 -110z"/>
</g>
</svg>
